#ifndef SONGARRAYS_H
#define SONGARRAYS_H

int NOTE_B0  =31; int NOTE_C1  =33; int NOTE_CS1 =35; int NOTE_D1  =37; int NOTE_DS1 =39; int NOTE_E1  =41; int NOTE_F1  =44;
int NOTE_FS1 =46; int NOTE_G1  =49;int NOTE_GS1 =52; int NOTE_A1  =55; int NOTE_AS1 =58; int NOTE_B1  =62; int NOTE_C2  =65;
int NOTE_CS2 =69; int NOTE_D2  =73; int NOTE_DS2 =78; int NOTE_E2  =82; int NOTE_F2  =87; int NOTE_FS2 =93; int NOTE_G2  =98;
int NOTE_GS2 =104; int NOTE_A2  =110; int NOTE_AS2 =117; int NOTE_B2  =123; int NOTE_C3  =131; int NOTE_CS3 =139; int NOTE_D3  =147;
int NOTE_DS3 =156; int NOTE_E3  =165; int NOTE_F3  =175; int NOTE_FS3 =185; int NOTE_G3  =196; int NOTE_GS3 =208; int NOTE_A3  =220;
int NOTE_AS3 =233; int NOTE_B3  =247; int NOTE_C4  =262; int NOTE_CS4 =277; int NOTE_D4  =294; int NOTE_DS4 =311; int NOTE_E4  =330;
int NOTE_F4  =349; int NOTE_FS4 =370; int NOTE_G4  =392; int NOTE_GS4 =415; int NOTE_A4  =440; int NOTE_AS4 =466; int NOTE_B4  =494;
int NOTE_C5  =523; int NOTE_CS5 =554; int NOTE_D5  =587; int NOTE_DS5 =622; int NOTE_E5  =659; int NOTE_F5  =698; int NOTE_FS5 =740; 
int NOTE_G5  =784; int NOTE_GS5 =831;int NOTE_A5  =880;  int NOTE_AS5 =932; int NOTE_B5  =988; int NOTE_C6  =1047; int NOTE_CS6 =1109;
int NOTE_D6  =1175; int NOTE_DS6 =1245; int NOTE_E6  =1319; int NOTE_F6  =1397; int NOTE_FS6 =1480; int NOTE_G6  =1568; int NOTE_GS6 =1661;
int NOTE_A6  =1760; int NOTE_AS6 =1865; int NOTE_B6  =1976; int NOTE_C7  =2093; int NOTE_CS7 =2217; int NOTE_D7  =2349; int NOTE_DS7 =2489;
int NOTE_E7  =2637; int NOTE_F7  =2794; int NOTE_FS7 =2960; int NOTE_G7  =3136; int NOTE_GS7 =3322; int NOTE_A7  =3520; int NOTE_AS7 =3729;
int NOTE_B7  =3951; int NOTE_C8  =4186; int NOTE_CS8 =4435; int NOTE_D8  =4699; int NOTE_DS8 =4978;

int REST = 0;
// int C2 = 65, D2 = 73, E2 = 82, F2 = 87, G2 = 98, note_A2 = 110, B2 = 123;
// int Csharp2 = 69, Dsharp2 = 78, Fsharp2 = 93, Gsharp2 = 104, Asharp2 = 117;
// int C3 = 131, D3 = 147, E3 = 165, F3 = 175, G3 = 196, note_A3 = 220, B3 = 247;
// int Csharp3 = 262, Dsharp3 = 294, Fsharp3 = 349, Gsharp3 = 392, Asharp3 = 440;
// int C4 = 262, D4 = 294, E4 = 330, F4 = 349, G4 = 392, note_A4 = 440, B4 = 494;
// int Csharp4 = 523, Dsharp4 = 587, Fsharp4 = 698, Gsharp4 = 784, Asharp4 = 880;
// int C5 = 523, D5 = 587, E5 = 659, F5 = 698, G5 = 784, note_A5 = 880, B5 = 988;
// int Csharp5 = 1047, Dsharp5 = 1175, Fsharp5 = 1397, Gsharp5 = 1568, Asharp5 = 1760;
// int C6 = 1047, D6 = 1175, E6 = 1319, F6 = 1397, G6 = 1568, note_A6 = 1760, B6 = 1976;
// int C7 = 2093, D7 = 2349, E7 = 2637, F7 = 2794, G7 = 3136, note_A7 = 3520, B7 = 3951;
// int C8 = 4186, D8 = 4699, E8 = 5274, F8 = 5588, G8 = 6272, note_A8 = 7040, B8 = 7902;

String song_names[] = {"Tetris", "StarWars", "Zelda"};

int song_0_notes[] = {
    0,0,0,0,0,0,0,0,0,0,0,0,0,0,0,0,
    NOTE_E5, NOTE_E5, NOTE_E5, NOTE_E5, NOTE_B4, NOTE_B4, NOTE_C5, NOTE_C5, NOTE_D5, NOTE_D5, NOTE_D5, NOTE_D5, NOTE_C5, NOTE_C5, NOTE_B4, NOTE_B4,
    NOTE_A4, NOTE_A4, NOTE_A4,  REST, NOTE_A4, NOTE_A4, NOTE_C5, NOTE_C5, NOTE_E5, NOTE_E5, NOTE_E5, NOTE_E5, NOTE_D5, NOTE_D5, NOTE_C5, NOTE_C5,
    NOTE_B4, NOTE_B4, NOTE_B4,  REST, NOTE_B4, NOTE_B4, NOTE_C5, NOTE_C5, NOTE_D5, NOTE_D5, NOTE_D5, NOTE_D5, NOTE_E5, NOTE_E5, NOTE_E5, NOTE_E5,
    NOTE_C5, NOTE_C5, NOTE_C5, NOTE_C5, NOTE_A4, NOTE_A4, NOTE_A4,  REST, NOTE_A4, NOTE_A4, NOTE_A4, NOTE_A4,  REST,  REST,  REST, REST,

    REST,  REST,  REST, NOTE_D5, NOTE_D5, NOTE_D5, NOTE_D5, NOTE_F5, NOTE_F5, NOTE_A5, NOTE_A5, NOTE_A5, REST,
    NOTE_G5, NOTE_G5, NOTE_F5, NOTE_F5, NOTE_E5, NOTE_E5, NOTE_E5,  REST, REST,  REST, NOTE_C5, NOTE_C5, NOTE_E5, NOTE_E5, NOTE_E5, NOTE_E5, NOTE_D5, NOTE_D5, NOTE_C5, NOTE_C5, NOTE_B4, NOTE_B4, NOTE_B4, NOTE_B4,  REST,  REST, NOTE_C5, NOTE_C5,
    NOTE_D5, NOTE_D5, NOTE_D5, NOTE_D5, NOTE_E5, NOTE_E5, NOTE_E5, NOTE_E5, NOTE_C5, NOTE_C5, NOTE_C5, NOTE_C5, NOTE_A4, NOTE_A4, NOTE_A4,  REST,
    NOTE_A4, NOTE_A4, NOTE_A4, NOTE_A4
};
// int tetris_buzzer_2[] = {
//     0,0,0,0,0,0,0,0,0,0,0,0,0,0,0,0,0,
// E5, E5, E6, E6, E5, E5, E6, E6, E5, E5, E6, E6, E5, E5, E6, E6,
//     note_A4, note_A4, note_A5, note_A5, note_A4, note_A4, note_A5, note_A5, note_A4, note_A4, note_A5, note_A5, note_A4, note_A4, note_A5, note_A5,
//     Gsharp4, Gsharp4, Gsharp5, Gsharp5, Gsharp4, Gsharp4, Gsharp5, Gsharp5, Gsharp4, Gsharp4, Gsharp5, Gsharp5, Gsharp4, Gsharp4, Gsharp5, Gsharp5,
//     note_A4, note_A4, note_A5, note_A5, note_A4, note_A4, note_A5, note_A5, note_A4, note_A4, note_A5, note_A5, B5, B5, C6, C6,

//     D5, D5, D6, D6, D5, D5, D6, D6, D5, D5, D6, D6, D5, D5, D6, D6,
//     D5, D5, D6, D6, C5, C5, C6, C6, C5, C5, C6, C6, C5, C5, C6, C6,
//     C5, C5, C6, C6, C5, C5, C6, C6, Gsharp4, Gsharp4, Gsharp5, Gsharp5, Gsharp4, Gsharp4, Gsharp5, Gsharp5,
//     Gsharp4, Gsharp4, Gsharp5, Gsharp5, Gsharp4, Gsharp4, Gsharp5, Gsharp5, note_A4, note_A4, note_A5, note_A5, note_A4, note_A4, note_A5, note_A5,
//     note_A4, note_A4, note_A5, note_A5, note_A4, note_A4, note_A5, note_A5,
// };

int song_0_rythm[] = {
  
    B00000011, B00000011, B00000011, B00000011, B00110000, B00110000, B00001100, B00001100, B00000011, B00000011, B00000011, B00000011, B00001100, B00001100, B00110000, B00110000,
    B1100000, B1100000, B1100000, B00000000, B1100000, B1100000, B00110000, B00110000, B00000011, B00000011, B00000011, B00000011, B00001100, B00001100, B00110000, B00110000,
    B00110000, B00110000, B00110000, B00000000, B00110000, B00110000, B00110000, B00110000, B00001100, B00001100, B00001100, B00001100, B00000011, B00000011, B00000011, B00000011,
    B00110000, B00110000, B00110000, B00110000, B1100000, B1100000, B1100000, B00000000, B1100000, B1100000, B1100000, B1100000, B00000000, B00000000, B00000000,B00000000,

    B00000000, B00000000, B00000000, B00001100, B00001100, B00001100, B00001100, B00001100, B00001100, B00000011, B00000011, B00000011,B00000000,
    B00001100, B00001100, B00001100, B00001100, B00000011, B00000011, B00000011, B00000000,B00000000, B00000000, B00110000, B00110000, B00000011, B00000011, B00000011, B00000011, B00001100, B00001100, B00110000, B00110000, B00110000, B00110000, B00110000, B00110000, B00000000, B00000000, B00110000, B00110000,
    B00001100, B00001100, B00001100, B00001100, B00000011, B00000011, B00000011, B00000011, B00110000, B00110000, B00110000, B00110000, B1100000, B1100000, B1100000, B00000000,
    B1100000, B1100000, B1100000, B1100000,


    B00000000,B00000000,B00000000,B00000000,B00000000,B00000000,B00000000,B00000000,B00000000,B00000000,B00000000,B00000000,B00000000,B00000000,B00000000,B00000000
};


int song_1_notes[] = {
  0,0,0,0,0,0,0,0,0,0,0,0,0,0,0,0,
  //NOTE_C5,NOTE_C5, NOTE_C5,NOTE_C5, NOTE_C5,NOTE_C5,
  NOTE_F5,NOTE_F5,NOTE_F5,NOTE_F5,NOTE_F5,NOTE_F5, NOTE_C6,NOTE_C6,NOTE_C6,NOTE_C6,NOTE_C6,NOTE_C6,NOTE_C6,NOTE_C6,
  NOTE_AS5,NOTE_AS5, NOTE_A5,NOTE_A5, NOTE_G5,NOTE_G5, NOTE_F6, NOTE_F6, NOTE_F6, NOTE_F6, NOTE_F6, NOTE_F6, NOTE_F6, NOTE_F6, NOTE_C6,NOTE_C6,NOTE_C6,NOTE_C6,  
  NOTE_AS5,NOTE_AS5, NOTE_A5,NOTE_A5, NOTE_G5,NOTE_G5, NOTE_F6, NOTE_F6, NOTE_F6, NOTE_F6, NOTE_F6, NOTE_F6, NOTE_F6, NOTE_F6, NOTE_C6,NOTE_C6,NOTE_C6,NOTE_C6,
  NOTE_AS5,NOTE_AS5, NOTE_A5,NOTE_A5, NOTE_AS5,NOTE_AS5, NOTE_G5,NOTE_G5,NOTE_G5,NOTE_G5,NOTE_G5,NOTE_G5,NOTE_G5,NOTE_G5, 

  NOTE_F5,NOTE_F5,NOTE_F5,NOTE_F5,NOTE_F5,NOTE_F5, NOTE_C6,NOTE_C6,NOTE_C6,NOTE_C6,NOTE_C6,NOTE_C6,NOTE_C6,NOTE_C6,
  NOTE_AS5,NOTE_AS5, NOTE_A5,NOTE_A5, NOTE_G5,NOTE_G5, NOTE_F6, NOTE_F6, NOTE_F6, NOTE_F6, NOTE_F6, NOTE_F6, NOTE_F6, NOTE_F6, NOTE_C6,NOTE_C6,NOTE_C6,NOTE_C6,  
  NOTE_AS5,NOTE_AS5, NOTE_A5,NOTE_A5, NOTE_G5,NOTE_G5, NOTE_F6, NOTE_F6, NOTE_F6, NOTE_F6, NOTE_F6, NOTE_F6, NOTE_F6, NOTE_F6, NOTE_C6,NOTE_C6,NOTE_C6,NOTE_C6,
  NOTE_AS5,NOTE_AS5, NOTE_A5,NOTE_A5, NOTE_AS5,NOTE_AS5, NOTE_G5,NOTE_G5,NOTE_G5,NOTE_G5,NOTE_G5,NOTE_G5,NOTE_G5,NOTE_G5, 

};
int song_1_rythm[] = {
  B1100000,B1100000,B1100000,B1100000,B1100000,B1100000, B00001100,B00001100,B00001100,B00001100,B00001100,B00001100,B00001100,B00001100,
  B00110000,B00110000, B1100000,B1100000, B00000011,B00000011, B00110000, B00110000, B00110000, B00110000, B00110000, B00110000, B00110000, B00110000, B00001100,B00001100,B00001100,B00001100,  
  B00110000,B00110000, B1100000,B1100000, B00000011,B00000011, B00110000, B00110000, B00110000, B00110000, B00110000, B00110000, B00110000, B00110000, B00001100,B00001100,B00001100,B00001100,
  B00110000,B00110000, B1100000,B1100000, B00110000,B00110000, B00000011,B00000011,B00000011,B00000011,B00000011,B00000011,B00000011,B00000011, 

  B1100000,B1100000,B1100000,B1100000,B1100000,B1100000, B00001100,B00001100,B00001100,B00001100,B00001100,B00001100,B00001100,B00001100,
  B00110000,B00110000, B1100000,B1100000, B00000011,B00000011, B00110000, B00110000, B00110000, B00110000, B00110000, B00110000, B00110000, B00110000, B00001100,B00001100,B00001100,B00001100,  
  B00110000,B00110000, B1100000,B1100000, B00000011,B00000011, B00110000, B00110000, B00110000, B00110000, B00110000, B00110000, B00110000, B00110000, B00001100,B00001100,B00001100,B00001100,
  B00110000,B00110000, B1100000,B1100000, B00110000,B00110000, B00000011,B00000011,B00000011,B00000011,B00000011,B00000011,B00000011,B00000011, 

  B00000000,B00000000,B00000000,B00000000,B00000000,B00000000,B00000000,B00000000,B00000000,B00000000,B00000000,B00000000,B00000000,B00000000,B00000000,B00000000
};


int song_2_notes[] = {
  0,0,0,0,0,0,0,0,0,0,0,0,0,0,0,
    
  NOTE_AS4,NOTE_AS4,NOTE_AS4,NOTE_AS4,  NOTE_F4,NOTE_F4,NOTE_F4,NOTE_F4, REST,REST,  NOTE_AS4,NOTE_AS4,  NOTE_AS4,  NOTE_C5, NOTE_D5, NOTE_DS5,
  NOTE_F5,NOTE_F5,NOTE_F5,NOTE_F5,NOTE_F5,NOTE_F5,NOTE_F5,NOTE_F5,  REST,REST,  NOTE_F5,NOTE_F5,  NOTE_F5,NOTE_F5,  NOTE_FS5, NOTE_GS5,
  NOTE_AS5,NOTE_AS5,NOTE_AS5,NOTE_AS5,NOTE_AS5,NOTE_AS5,NOTE_AS5,NOTE_AS5,  REST,REST,  NOTE_AS5,NOTE_AS5,  NOTE_GS5, NOTE_GS5,  NOTE_FS5,NOTE_FS5,
  NOTE_GS5,NOTE_GS5,NOTE_GS5,  NOTE_FS5,  NOTE_F5,NOTE_F5,NOTE_F5,NOTE_F5,NOTE_F5,NOTE_F5,NOTE_F5,NOTE_F5,
  REST,REST,REST,REST,

  NOTE_DS5, NOTE_DS5, REST, NOTE_F5, NOTE_FS5,NOTE_FS5,NOTE_FS5,NOTE_FS5,NOTE_FS5,NOTE_FS5,NOTE_FS5,NOTE_FS5, NOTE_F5,NOTE_F5, NOTE_DS5,NOTE_DS5,
  NOTE_CS5,NOTE_CS5, REST, NOTE_DS5, NOTE_F5,NOTE_F5,NOTE_F5,NOTE_F5,NOTE_F5,NOTE_F5,NOTE_F5,NOTE_F5, NOTE_DS5,NOTE_DS5, NOTE_CS5,NOTE_CS5,
  NOTE_C5,NOTE_C5, REST, NOTE_D5, NOTE_E5,NOTE_E5,NOTE_E5,NOTE_E5,NOTE_E5,NOTE_E5,NOTE_E5,NOTE_E5, NOTE_G5,NOTE_G5,NOTE_G5,NOTE_G5, 
  NOTE_F5,NOTE_F5,NOTE_F5,NOTE_F5,NOTE_F5,NOTE_F5,NOTE_F5,NOTE_F5, 
};
int song_2_rythm[] = {
  B00110000,B00110000,B00110000,B00110000, B1100000,B1100000,B1100000,B1100000, B00000000,B00000000,  B00110000,B00110000,  B00110000,  B00001100, B00000011, B00000011,
  B00001100,B00001100,B00001100,B00001100,B00001100,B00001100,B00001100,B00001100,  B00000000,B00000000,  B00001100,B00001100,  B00001100,B00001100,  B00110000, B00000011,
  B00110000,B00110000,B00110000,B00110000,B00110000,B00110000,B00110000,B00110000,  B00000000,B00000000,  B00110000,B00110000,  B00000011, B00000011,  B00110000,B00110000,
  B00000011,B00000011,B00000011,  B00110000,  B00001100,B00001100,B00001100,B00001100,B00001100,B00001100,B00001100,B00001100,
  B00000000,B00000000,B00000000,B00000000,

  B00000011, B00000011, B00000000, B00001100, B00110000,B00110000,B00110000,B00110000,B00110000,B00110000,B00110000,B00110000, B00001100,B00001100, B00000011,B00000011,
  B00001100,B00001100, B00000000, B00000011, B00001100,B00001100,B00001100,B00001100,B00001100,B00001100,B00001100,B00001100, B00000011,B00000011, B00001100,B00001100,
  B00001100,B00001100, B00000000, B00000011, B00110000,B00110000,B00110000,B00110000,B00110000,B00110000,B00110000,B00110000, B00001100,B00001100,B00001100,B00001100, 
  B00001100,B00001100,B00001100,B00001100,B00001100,B00001100,B00001100,B00001100, 

  B00000000,B00000000,B00000000,B00000000,B00000000,B00000000,B00000000,B00000000,B00000000,B00000000,B00000000,B00000000,B00000000,B00000000,B00000000,B00000000

};



#endif